<svg width="252" height="403" viewBox="0 0 252 403" fill="none" xmlns="http://www.w3.org/2000/svg">
<g filter="url(#filter0_d_274_53)">
<path d="M19.1417 60.8751C19.3899 64.2198 19.6381 67.5644 19.859 70.9472C20.7437 64.096 20.4975 57.2981 24.6315 51.0482C29.0108 44.4559 35.772 39.916 42.6562 36.3279C43.3963 35.9371 44.4435 36.8027 43.7571 37.5199C40.1504 41.2688 36.7444 45.2191 33.5771 49.398C37.532 47.9715 41.6488 47.1217 45.9274 46.8484C46.8897 46.7894 47.0828 47.9643 46.3154 48.3932C42.2827 50.57 38.3368 52.8666 34.5642 55.4026C33.0236 56.429 29.5295 58.416 29.7861 60.3849C29.6275 60.8469 29.7951 61.255 30.3815 61.56C30.7489 62.5719 31.3411 62.7084 32.2127 61.8935C34.0505 61.656 36.451 60.1519 38.1377 59.403C46.6094 55.6859 54.8433 51.3378 61.5923 44.8892C62.2623 44.2753 63.5003 44.8747 63.0146 45.7932C59.9412 51.7668 55.8148 57.0433 50.6089 61.2584C45.7352 65.2508 39.963 67.4477 34.7209 70.8307C22.4079 78.7043 21.6635 93.5443 23.9127 106.614C30.2276 97.321 37.9969 89.1277 46.9539 82.2461C47.4875 81.8224 48.2804 82.1603 48.2679 82.8999C48.0425 89.0719 43.4999 93.2441 39.6041 97.4767C36.0734 101.28 33.1885 105.546 30.3144 109.878C27.4948 114.133 26.286 117.585 28.4007 122.498C29.9151 126.001 31.7558 129.451 33.428 132.895C34.3372 134.755 35.2464 136.616 36.1555 138.477C36.518 139.255 37.442 141.817 38.6058 141.557C38.8668 141.514 39.4536 139.171 39.5684 138.85C42.3628 131.179 45.5917 123.705 49.217 116.4C49.5499 115.775 50.7674 115.841 50.6079 116.705C49.2772 123.698 47.6202 130.744 46.8058 137.818C46.0302 144.517 46.3622 151.837 50.9928 157.171C51.6923 157.96 52.6626 159.174 53.662 159.544C56.2852 160.618 59.108 157.402 60.8345 155.875C63.2309 153.735 65.5893 151.567 68.0725 149.547C72.9735 145.516 78.2156 142.133 84.3024 140.219C85.0368 139.997 85.5727 141.014 85.0225 141.541C79.0905 147.251 73.4078 153.255 68.1051 159.531C65.4674 162.65 58.5829 168.886 60.302 173.228C60.9725 174.86 63.176 176.439 64.4347 177.571C65.254 178.273 66.084 179.041 66.9851 179.629C68.4122 180.767 70.1285 181.421 72.1067 181.63C73.8807 183.247 75.5376 183.743 76.974 183.103C80.9377 177.652 83.6965 171.395 86.7698 165.422C90.0233 159.117 93.3041 152.773 96.5848 146.43C97.0706 145.512 98.2814 146.149 97.9641 147.073C95.6761 154.358 93.388 161.643 91.1273 168.89C90.1473 172.103 89.1293 175.289 88.1493 178.502C87.213 181.573 85.0675 185.851 88.8179 188.481C90.2236 189.489 92.533 189.877 94.2394 190.064C100.033 190.645 105.756 188.356 110.888 185.93C117.695 182.69 124.307 179.08 130.28 174.436C131.173 173.752 132.089 175.041 131.338 175.769C124.208 182.348 117.886 189.966 111.282 197.095C113.77 197.956 116.844 199.123 117.343 199.309C119.924 200.121 122.531 200.896 125.139 201.671C131.435 203.477 137.514 205.184 143.588 201.764C152.998 196.417 159.659 185.356 162.231 175.108C162.22 175.043 162.275 174.967 162.302 174.929C162.291 174.863 162.291 174.863 162.28 174.798C162.211 174.173 163.255 174 163.39 174.614C166.364 186.592 158.405 197.297 151.058 206.024C156.601 206.714 161.744 203.951 166.252 200.791C171.413 197.119 176.043 192.664 180.028 187.747C184.23 182.525 187.662 176.693 190.235 170.534C192.711 164.592 193.621 158.508 195.053 152.337C195.065 152 195.076 151.663 195.05 151.298C195.062 150.961 195.236 150.798 195.421 150.7C195.748 150.244 196.574 150.375 196.616 151.039C196.608 152.012 196.574 153.024 196.501 154.008C196.531 165.2 194.626 176.444 191.183 187.105C190.981 187.708 190.778 188.312 190.576 188.915C189.403 190.953 190.646 191.786 194.25 191.491C195.665 191.122 197.131 189.237 198.139 188.232C200.367 186.086 202.291 183.722 204.09 181.211C208.114 175.516 211.237 169.232 214.295 162.96C214.726 162.117 215.975 162.782 215.581 163.651C212.101 171.637 209.224 179.824 206.809 188.169C211.218 185.628 214.899 182.336 217.92 178.282C218.58 177.201 219.305 176.108 220.106 175.07C220.134 175.032 220.161 174.994 220.161 174.994C220.188 174.956 220.243 174.88 220.27 174.842C220.891 174.136 221.987 175.094 221.507 175.844C220.721 177.181 219.887 178.425 218.949 179.654C217.012 183.159 215.672 187.035 213.083 190.247C209.992 194.078 205.936 196.929 201.637 199.318C192.548 204.377 182.543 208.55 172.913 212.358C168.506 214.094 163.877 215.498 159.131 215.782C153.917 216.076 148.832 214.908 143.822 213.794C134.227 211.696 124.731 209.381 115.283 206.757C116.2 207.644 117.117 208.531 117.99 209.56C118.499 210.213 118.302 211.05 117.513 211.349C110.533 213.947 103.203 217.676 95.8292 218.898C92.0445 219.525 88.611 218.619 85.1024 217.256C83.3481 216.575 81.2908 215.273 79.3819 215.69C78.5716 215.858 78.4889 216.375 77.4779 216.341C77.3094 216.335 77.1302 216.265 76.9782 216.156C75.8854 216.236 74.8092 216.213 73.7651 216.386C73.6726 216.435 73.5421 216.457 73.4223 216.544C71.0277 217.879 68.7948 219.791 66.7032 221.747C65.2154 223.502 63.7763 225.35 62.0284 226.746C59.4527 228.815 57.4113 228.958 54.3699 230.233C51.4863 231.449 22.1506 284.708 22.1506 284.708C21.1803 287.16 -11.721 340.635 -11.721 340.635C-12.4075 341.353 -35.159 341.424 -35.159 341.424C-41.4643 346.291 -40.6305 345.387 -46.3311 349.651C-61.2877 360.812 -110.419 346.597 -105.465 325.562C-101.877 310.284 -65.8646 288.001 -56.5521 277.318C-52.3505 272.499 -31.9391 257.405 -27.4502 252.906C-23.5387 248.973 6.08266 225.856 10.2436 222.216C12.3839 220.353 25.8062 210.691 25.8062 210.691C26.6003 207.978 27.3944 205.265 28.1505 202.525C29.5528 197.599 30.2994 191.743 32.6631 187.161C27.6209 183.605 23.961 176.837 22.4072 171.462C20.2168 163.847 21.1966 155.74 24.6963 148.69C25.002 148.103 25.7578 148.011 26.2244 148.403C30.4728 152.023 34.209 156.198 37.2918 160.883C38.7329 163.125 40.0541 165.454 41.2176 167.842C41.6776 168.805 42.0491 170.453 42.7213 171.28C43.0606 172.733 44.1253 173.093 45.9532 172.387C42.7742 164.466 36.1457 157.989 31.7094 150.779C25.7239 141.077 21.17 130.501 16.7952 119.996C14.3998 114.191 14.2708 108.514 13.0012 102.422C12.0709 97.7823 10.6565 93.2565 10.5745 88.4763C10.3783 78.7201 14.046 69.4299 17.6095 60.5256C17.8558 59.7808 19.084 59.9125 19.1417 60.8751ZM81.5697 196.991C79.8 200.904 89.155 200.93 95.3416 200.642C89.7913 198.276 83.0883 193.588 81.5697 196.991Z" fill="#00FF1A"/>
</g>
<path d="M32.0062 229.283L40.6998 232.806L41.619 239.62L36.5359 243.081L23.2231 299.358L12.7459 317.629L9.58655 299.817L30.2132 240.518L27.393 233.854L32.0062 229.283Z" fill="white"/>
<path d="M42.858 181.801L79.5047 209.638C80.5014 211.175 77.564 214.542 76.3221 216.275C73.59 220.087 63.4796 212.317 61.0535 210.578C58.6275 208.84 63.1502 201.065 61.4173 199.823C59.6844 198.581 55.4678 200.805 51.3031 201.492C49.5183 201.787 47.6352 201.486 41.9455 194.786C37.3938 189.426 39.7274 186.902 42.858 181.801Z" fill="white"/>
<defs>
<filter id="filter0_d_274_53" x="-125.814" y="16.2307" width="367.439" height="357.328" filterUnits="userSpaceOnUse" color-interpolation-filters="sRGB">
<feFlood flood-opacity="0" result="BackgroundImageFix"/>
<feColorMatrix in="SourceAlpha" type="matrix" values="0 0 0 0 0 0 0 0 0 0 0 0 0 0 0 0 0 0 127 0" result="hardAlpha"/>
<feOffset/>
<feGaussianBlur stdDeviation="10"/>
<feComposite in2="hardAlpha" operator="out"/>
<feColorMatrix type="matrix" values="0 0 0 0 0 0 0 0 0 1 0 0 0 0 0.101961 0 0 0 0.5 0"/>
<feBlend mode="normal" in2="BackgroundImageFix" result="effect1_dropShadow_274_53"/>
<feBlend mode="normal" in="SourceGraphic" in2="effect1_dropShadow_274_53" result="shape"/>
</filter>
</defs>
</svg>
