<svg width="217" height="310" viewBox="0 0 217 310" fill="none" xmlns="http://www.w3.org/2000/svg">
<g filter="url(#filter0_d_175_263)">
<path d="M-2.53873 201.055C-6.04657 204.013 -9.97601 207.049 -13.4674 210.334L-6.78621 272C54.5557 197.5 81.886 201.599 90.3048 200.911C96.9117 200.351 103.875 198.401 106.029 191.607C107.632 188.841 108.671 185.639 108.726 182.486C108.797 179.661 107.686 179.117 105.154 178.373C100.386 177.025 95.9455 175.66 91.6279 173.266C88.4054 171.493 85.4009 169.439 82.4118 167.307C82.5835 167.259 82.7398 167.29 82.8489 167.15C87.2781 164.05 91.6446 160.857 96.0111 157.664C96.588 157.21 96.6478 156.086 95.9907 155.713C93.4252 154.313 90.8144 153.554 88.1111 153.263C106.121 145.546 124.648 138.906 144.392 137.616C152.701 137.069 163.284 139.404 170.143 133.458C173.962 130.157 176.67 125.906 180.709 122.729C185.574 119.067 191.004 116.246 196.355 113.41C197.26 112.94 196.709 111.208 195.632 111.32C191.212 111.906 186.808 112.415 182.388 113.002C185.186 100.899 187.841 87.4705 182.173 75.8851C181.765 75.0743 180.671 75.2639 180.533 75.9666C180.111 76.0455 179.815 76.3114 179.816 76.7172C180.002 88.9227 176.577 100.496 169.212 110.235C167.164 103.34 164.32 96.7748 160.493 90.6642C159.804 89.6355 158.086 90.1073 158.402 91.3865C160.06 98.6098 161.315 107.457 159.318 114.688C157.118 122.528 145.45 123.223 138.06 122.817C139.958 119.785 141.935 116.769 143.912 113.752C144.379 113.033 143.954 111.895 142.955 112.022C137.488 112.563 132.652 115.258 129.522 119.588C128.948 114.688 127.874 109.852 126.378 105.094C126.001 104.127 124.344 103.881 124.113 105.052C123.453 110.033 122.872 115.029 122.024 119.728C120.944 125.194 117.512 127.355 112.514 127.989C106.095 128.83 100.304 130.605 94.9851 134.097C95.4547 128.024 93.0346 122.192 88.3532 117.94C87.508 117.287 86.0415 118.132 86.3253 119.162C88.7532 128.241 85.3064 137.051 79.246 143.885C76.6286 146.856 72.7649 151.203 68.9086 152.225C66.5198 152.808 63.9872 152.064 61.6427 151.6C61.0175 151.477 60.0951 151.213 59.0946 150.935C59.3281 150.575 59.3425 150.091 58.9199 149.764C51.89 143.426 48.8832 133.989 51.1104 124.776C51.3738 123.854 50.1533 123.045 49.3892 123.624C46.9252 125.409 44.8375 127.754 41.6816 127.698C38.1977 127.659 35.0071 126.136 31.9254 124.472C27.905 122.217 24.2733 119.228 21.3276 115.644C18.4445 112.153 16.2321 108.147 14.8155 103.81C13.7454 100.597 14.4004 100.159 16.9261 98.062C18.5942 96.607 20.1841 95.1365 21.774 93.666C22.569 92.9308 22.0662 91.7768 21.0503 91.576C17.6744 90.9898 14.5659 91.1055 11.3493 91.7677C10.526 87.3054 10.328 82.9666 10.4889 78.4555C14.022 79.4783 17.5214 79.4399 21.0804 78.2775C22.0327 77.979 22.2487 76.886 21.4663 76.3257C18.7898 74.2553 16.3786 72.0751 14.0919 69.6761C25.2446 62.5512 39.0826 61.1492 51.467 65.8686C52.9837 66.4118 53.8066 64.3029 52.3989 63.6191C44.3282 59.6712 36.2728 55.6452 28.2175 51.6192C31.9519 45.4618 41.3791 48.2987 47.3329 48.9888C52.2553 49.5562 57.2241 49.8893 62.2062 49.3327C69.9217 48.5052 77.335 45.5087 82.4134 39.5358C83.4572 38.363 82.0476 36.8675 80.8156 37.7597C73.5799 43.1439 62.6659 39.2019 54.5557 38.3289C46.8363 37.5332 39.0398 37.1279 31.2597 37.0502C31.653 31.7738 31.0623 26.5462 29.3003 21.4927C28.9384 20.4476 27.5008 20.3257 27.113 21.4659C25.8108 25.5893 25.7744 29.8817 25.0192 34.1131C24.1251 39.0472 21.6641 42.0491 18.0945 45.3186C14.6185 48.5255 11.0644 51.717 7.58838 54.9239C5.2971 57.067 3.06261 56.8687 0.139222 56.0474C-2.15897 55.3498 -4.47259 54.7302 -6.78621 54.1107C-8.09932 53.77 -8.82959 55.4104 -7.76536 56.1886C2.26702 63.7692 -2.21171 78.6221 -0.325882 89.6222C-3.26568 88.4732 -6.32895 87.9489 -9.60926 88.1117C-10.5933 88.1606 -11.2937 89.239 -10.5575 90.0335C-3.21211 97.6509 4.33789 105.877 5.86384 116.643C1.80401 117.463 -1.59679 119.468 -4.41672 122.642C-5.03994 123.331 -4.35005 124.359 -3.55312 124.436C5.02493 124.996 13.7438 125.664 22.0451 128.035C24.2671 129.529 26.5673 131.038 28.7893 132.532C32.2318 134.835 36.0323 136.56 39.4902 138.785C39.5375 138.956 39.6002 139.05 39.6475 139.221C40.3722 141.717 40.1755 144.356 40.3223 146.899C37.2696 144.268 33.7962 142.121 29.9649 140.553C29.6677 140.413 29.4178 140.444 29.1525 140.554C29.1679 140.476 29.0898 140.461 29.1052 140.383C28.6334 139.072 26.5572 139.717 27.0136 141.105C28.5237 145.379 28.0503 149.828 30.2473 153.913C31.6127 156.454 33.5395 158.62 35.9024 160.223C34.1023 165.221 33.2874 170.576 30.3768 175.031C26.7813 180.486 19.7587 183.559 14.6281 187.331C8.67074 191.589 3.04236 196.237 -2.53873 201.055Z" fill="#00FF1A"/>
</g>
<path d="M52.8641 159.809L88.2963 165.361C89.6858 165.579 90.1057 168.983 90.4601 170.581C91.2399 174.097 89.0029 174.593 86.7659 175.089C84.5289 175.585 82.401 169.016 80.8032 169.37C79.2053 169.725 78.3163 173.275 76.5755 176.008C74.8347 178.741 65.4264 177.14 58.7874 175.931C53.4762 174.963 53.6405 172.378 51.7973 164.069L46.1018 158.369C45.8896 158.157 45.7925 157.855 45.841 157.559C45.9434 156.933 46.6265 156.59 47.1899 156.88L52.8641 159.809Z" fill="white"/>
<path d="M54.1661 213.397L43.3075 211.639L38.2401 217.91L41.2298 224.472L40.102 293.3L43.3075 308.99L51.602 288.8L50 220.5L54.1661 213.397Z" fill="white"/>
<defs>
<filter id="filter0_d_175_263" x="-33.4673" y="0.658936" width="250.278" height="291.341" filterUnits="userSpaceOnUse" color-interpolation-filters="sRGB">
<feFlood flood-opacity="0" result="BackgroundImageFix"/>
<feColorMatrix in="SourceAlpha" type="matrix" values="0 0 0 0 0 0 0 0 0 0 0 0 0 0 0 0 0 0 127 0" result="hardAlpha"/>
<feOffset/>
<feGaussianBlur stdDeviation="10"/>
<feComposite in2="hardAlpha" operator="out"/>
<feColorMatrix type="matrix" values="0 0 0 0 0 0 0 0 0 1 0 0 0 0 0.101961 0 0 0 0.5 0"/>
<feBlend mode="normal" in2="BackgroundImageFix" result="effect1_dropShadow_175_263"/>
<feBlend mode="normal" in="SourceGraphic" in2="effect1_dropShadow_175_263" result="shape"/>
</filter>
</defs>
</svg>
